<svg width="18" height="18" viewBox="0 0 18 18" fill="none" xmlns="http://www.w3.org/2000/svg">
<path d="M9.48384 7.54545C9.48384 7.40079 9.43287 7.26205 9.34213 7.15976C9.25139 7.05747 9.12832 7 9 7C8.87168 7 8.74861 7.05747 8.65787 7.15976C8.56713 7.26205 8.51615 7.40079 8.51615 7.54545V8.05527L8.12456 7.80073C8.01386 7.73427 7.88458 7.71887 7.764 7.75778C7.64342 7.79668 7.54095 7.88686 7.4782 8.00928C7.41545 8.13171 7.39733 8.27682 7.42765 8.41402C7.45796 8.55122 7.53436 8.66979 7.64072 8.74473L8.03231 8.99927L7.64072 9.25455C7.5295 9.32688 7.44833 9.44605 7.41506 9.58585C7.38179 9.72565 7.39915 9.87462 7.46331 10C7.52747 10.1254 7.63318 10.2169 7.75719 10.2544C7.8812 10.2919 8.01335 10.2723 8.12456 10.2L8.51615 9.94473V10.4545C8.51615 10.5992 8.56713 10.7379 8.65787 10.8402C8.74861 10.9425 8.87168 11 9 11C9.12832 11 9.25139 10.9425 9.34213 10.8402C9.43287 10.7379 9.48384 10.5992 9.48384 10.4545V9.94545L9.87544 10.2C9.98665 10.2723 10.1188 10.2919 10.2428 10.2544C10.3668 10.2169 10.4725 10.1254 10.5367 10C10.6009 9.87462 10.6182 9.72565 10.5849 9.58585C10.5517 9.44605 10.4705 9.32688 10.3593 9.25455L9.96769 9L10.3593 8.74545C10.4705 8.67312 10.5517 8.55395 10.5849 8.41415C10.6182 8.27435 10.6009 8.12538 10.5367 8C10.4725 7.87462 10.3668 7.78312 10.2428 7.74561C10.1188 7.7081 9.98665 7.72767 9.87544 7.8L9.48384 8.05455V7.54545ZM5.60212 7C5.73044 7 5.85351 7.05747 5.94425 7.15976C6.03499 7.26205 6.08596 7.40079 6.08596 7.54545V8.05455L6.47691 7.8C6.58812 7.72767 6.72027 7.7081 6.84428 7.74561C6.96829 7.78312 7.074 7.87462 7.13816 8C7.20233 8.12538 7.21968 8.27435 7.18641 8.41415C7.15314 8.55395 7.07197 8.67312 6.96075 8.74545L6.56916 9L6.96075 9.25455C7.01582 9.29036 7.06409 9.33805 7.10281 9.3949C7.14153 9.45174 7.16994 9.51663 7.18641 9.58585C7.20288 9.65507 7.2071 9.72728 7.19882 9.79834C7.19055 9.86939 7.16993 9.93792 7.13816 10C7.10639 10.0621 7.06409 10.1165 7.01366 10.1601C6.96324 10.2038 6.90568 10.2358 6.84428 10.2544C6.78288 10.273 6.71883 10.2777 6.6558 10.2684C6.59276 10.2591 6.53198 10.2358 6.47691 10.2L6.08596 9.94545V10.4545C6.08596 10.5992 6.03499 10.7379 5.94425 10.8402C5.85351 10.9425 5.73044 11 5.60212 11C5.47379 11 5.35073 10.9425 5.25999 10.8402C5.16925 10.7379 5.11827 10.5992 5.11827 10.4545V9.94473L4.72604 10.1993C4.61533 10.2657 4.48606 10.2811 4.36548 10.2422C4.24489 10.2033 4.14243 10.1131 4.07968 9.99072C4.01693 9.86829 3.9988 9.72318 4.02912 9.58598C4.05944 9.44878 4.13583 9.33021 4.24219 9.25527L4.63378 9L4.24219 8.74545C4.18712 8.70964 4.13885 8.66195 4.10013 8.6051C4.06142 8.54826 4.03301 8.48337 4.01654 8.41415C4.00006 8.34493 3.99584 8.27272 4.00412 8.20167C4.0124 8.13061 4.03301 8.06208 4.06478 8C4.09655 7.93792 4.13886 7.8835 4.18928 7.83986C4.23971 7.79621 4.29726 7.76418 4.35867 7.74561C4.42007 7.72704 4.48412 7.72228 4.54715 7.73162C4.61018 7.74095 4.67097 7.76419 4.72604 7.8L5.11827 8.05527V7.54545C5.11827 7.40079 5.16925 7.26205 5.25999 7.15976C5.35073 7.05747 5.47379 7 5.60212 7ZM12.8824 7.54545C12.8824 7.40079 12.8314 7.26205 12.7407 7.15976C12.6499 7.05747 12.5268 7 12.3985 7C12.2702 7 12.1471 7.05747 12.0564 7.15976C11.9657 7.26205 11.9147 7.40079 11.9147 7.54545V8.05527L11.5231 7.80073C11.4124 7.73427 11.2831 7.71887 11.1625 7.75778C11.0419 7.79668 10.9395 7.88686 10.8767 8.00928C10.814 8.13171 10.7959 8.27682 10.8262 8.41402C10.8565 8.55122 10.9329 8.66979 11.0392 8.74473L11.4308 8.99927L11.0386 9.25455C10.9274 9.32688 10.8462 9.44605 10.8129 9.58585C10.7797 9.72565 10.797 9.87462 10.8612 10C10.9254 10.1254 11.0311 10.2169 11.1551 10.2544C11.2791 10.2919 11.4112 10.2723 11.5224 10.2L11.9147 9.94473V10.4545C11.9147 10.5992 11.9657 10.7379 12.0564 10.8402C12.1471 10.9425 12.2702 11 12.3985 11C12.5268 11 12.6499 10.9425 12.7407 10.8402C12.8314 10.7379 12.8824 10.5992 12.8824 10.4545V9.94545L13.274 10.2C13.3852 10.2723 13.5173 10.2919 13.6413 10.2544C13.7653 10.2169 13.8711 10.1254 13.9352 10C13.9994 9.87462 14.0167 9.72565 13.9835 9.58585C13.9502 9.44605 13.869 9.32688 13.7578 9.25455L13.3662 9L13.7578 8.74545C13.869 8.67312 13.9502 8.55395 13.9835 8.41415C14.0167 8.27435 13.9994 8.12538 13.9352 8C13.8711 7.87462 13.7653 7.78312 13.6413 7.74561C13.5173 7.7081 13.3852 7.72767 13.274 7.8L12.8824 8.05455V7.54545Z" fill="black"/>
<path fill-rule="evenodd" clip-rule="evenodd" d="M7.458 2.4375C6.0795 2.4375 4.9875 2.4375 4.13325 2.55225C3.25425 2.67075 2.5425 2.91975 1.98075 3.48075C1.41975 4.0425 1.17075 4.75425 1.05225 5.63325C0.9375 6.48825 0.9375 7.5795 0.9375 8.958V9.042C0.9375 10.4205 0.9375 11.5125 1.05225 12.3668C1.17075 13.2458 1.41975 13.9575 1.98075 14.5192C2.5425 15.0802 3.25425 15.3293 4.13325 15.4478C4.98825 15.5625 6.0795 15.5625 7.458 15.5625H10.542C11.9205 15.5625 13.0125 15.5625 13.8668 15.4478C14.7458 15.3293 15.4575 15.0802 16.0192 14.5192C16.5802 13.9575 16.8293 13.2458 16.9478 12.3668C17.0625 11.5118 17.0625 10.4205 17.0625 9.042V8.958C17.0625 7.5795 17.0625 6.4875 16.9478 5.63325C16.8293 4.75425 16.5802 4.0425 16.0192 3.48075C15.4575 2.91975 14.7458 2.67075 13.8668 2.55225C13.0118 2.4375 11.9205 2.4375 10.542 2.4375H7.458ZM2.7765 4.2765C3.09375 3.95925 3.52875 3.76875 4.28325 3.6675C5.05425 3.564 6.06975 3.5625 7.5 3.5625H10.5C11.9303 3.5625 12.9465 3.564 13.7175 3.6675C14.4713 3.76875 14.9062 3.95925 15.2235 4.2765C15.5408 4.59375 15.7313 5.02875 15.8325 5.78325C15.936 6.55425 15.9375 7.56975 15.9375 9C15.9375 10.4303 15.936 11.4465 15.8325 12.2175C15.7313 12.9713 15.5408 13.4062 15.2235 13.7235C14.9062 14.0408 14.4712 14.2313 13.7167 14.3325C12.9465 14.436 11.9303 14.4375 10.5 14.4375H7.5C6.06975 14.4375 5.05425 14.436 4.2825 14.3325C3.52875 14.2313 3.09375 14.0408 2.7765 13.7235C2.45925 13.4062 2.26875 12.9712 2.1675 12.2167C2.064 11.4457 2.0625 10.4303 2.0625 9C2.0625 7.56975 2.064 6.55425 2.1675 5.7825C2.26875 5.02875 2.45925 4.59375 2.7765 4.2765Z" fill="black"/>
</svg>
