<svg width="32" height="32" viewBox="0 0 32 32" fill="none" xmlns="http://www.w3.org/2000/svg">
<g filter="url(#filter0_d_87_5077)">
<rect x="4" y="3" width="24" height="24" rx="5" fill="#1B1B22"/>
<path d="M10.9807 16.5111C9.98892 15.6568 9.43915 14.5882 9.33138 13.3052C9.224 12.0219 9.59597 10.886 10.4473 9.89776C11.2979 8.91035 12.3676 8.37255 13.6565 8.28436C14.945 8.19661 16.0851 8.5799 17.0769 9.43425L22.7932 14.3584C23.4859 14.9551 23.8693 15.7006 23.9432 16.5946C24.0171 17.4887 23.7561 18.2821 23.1601 18.9748C22.5637 19.6671 21.818 20.0429 20.9228 20.1022C20.0279 20.1602 19.2341 19.8909 18.5414 19.2941L13.127 14.63C12.7428 14.2991 12.5272 13.8799 12.48 13.3723C12.4328 12.8648 12.5754 12.4181 12.9078 12.0322C13.2403 11.6463 13.6629 11.4324 14.1757 11.3906C14.6882 11.3483 15.141 11.4966 15.5343 11.8354L20.9743 16.5215L20.4102 17.1763L14.9703 12.4902C14.7612 12.3101 14.5214 12.2282 14.251 12.2447C13.9805 12.2603 13.7552 12.3727 13.575 12.5818C13.3945 12.7913 13.3166 13.031 13.3412 13.3009C13.3649 13.5708 13.4814 13.7958 13.6905 13.9759L19.118 18.6513C19.6288 19.0867 20.2106 19.2834 20.8636 19.2414C21.5174 19.1992 22.0646 18.9224 22.5053 18.4107C22.9427 17.9031 23.1333 17.3194 23.0772 16.6597C23.0208 16.0005 22.7381 15.4516 22.2291 15.0132L16.5129 10.089C15.7063 9.39044 14.776 9.0769 13.722 9.14842C12.6677 9.22038 11.7929 9.65992 11.0976 10.467C10.4121 11.2628 10.1141 12.1848 10.2035 13.233C10.2934 14.2807 10.7404 15.1551 11.5447 15.8564L17.2865 20.8025L16.7225 21.4573L10.9807 16.5111Z" fill="#58728D"/>
</g>
<defs>
<filter id="filter0_d_87_5077" x="0" y="0" width="32" height="32" filterUnits="userSpaceOnUse" color-interpolation-filters="sRGB">
<feFlood flood-opacity="0" result="BackgroundImageFix"/>
<feColorMatrix in="SourceAlpha" type="matrix" values="0 0 0 0 0 0 0 0 0 0 0 0 0 0 0 0 0 0 127 0" result="hardAlpha"/>
<feOffset dy="1"/>
<feGaussianBlur stdDeviation="2"/>
<feComposite in2="hardAlpha" operator="out"/>
<feColorMatrix type="matrix" values="0 0 0 0 0 0 0 0 0 0 0 0 0 0 0 0 0 0 0.25 0"/>
<feBlend mode="normal" in2="BackgroundImageFix" result="effect1_dropShadow_87_5077"/>
<feBlend mode="normal" in="SourceGraphic" in2="effect1_dropShadow_87_5077" result="shape"/>
</filter>
</defs>
</svg>
