<svg width="32" height="32" viewBox="0 0 32 32" fill="none" xmlns="http://www.w3.org/2000/svg">
<g filter="url(#filter0_d_87_5097)">
<rect x="4" y="3" width="24" height="24" rx="5" fill="#1B1B22"/>
<path fill-rule="evenodd" clip-rule="evenodd" d="M12.7328 7.83334H19.2668C19.9448 7.83334 20.4115 7.83334 20.8042 7.96934C21.1712 8.09895 21.5033 8.31146 21.7748 8.59035C22.0463 8.86924 22.2498 9.20699 22.3695 9.57734C22.5002 9.97534 22.4995 10.4487 22.4995 11.1507V20.5827C22.4995 21.56 21.3482 22.1413 20.5902 21.4473C20.5659 21.4241 20.5335 21.4111 20.4998 21.4111C20.4662 21.4111 20.4338 21.4241 20.4095 21.4473L20.0868 21.742C19.4682 22.3087 18.5308 22.3087 17.9122 21.742C17.8002 21.6375 17.6527 21.5793 17.4995 21.5793C17.3463 21.5793 17.1988 21.6375 17.0868 21.742C16.4682 22.3087 15.5308 22.3087 14.9122 21.742C14.8002 21.6375 14.6527 21.5793 14.4995 21.5793C14.3463 21.5793 14.1988 21.6375 14.0868 21.742C13.4682 22.3087 12.5308 22.3087 11.9122 21.742L11.5902 21.4473C11.5658 21.4239 11.5333 21.4108 11.4995 21.4108C11.4657 21.4108 11.4332 21.4239 11.4088 21.4473C10.6508 22.1407 9.49951 21.56 9.49951 20.5827V11.1513C9.49951 10.4487 9.49951 9.97534 9.62951 9.57734C9.74916 9.20697 9.95265 8.86919 10.2241 8.5903C10.4956 8.3114 10.8278 8.0989 11.1948 7.96934C11.5882 7.83268 12.0548 7.83334 12.7328 7.83334ZM12.8295 8.83334C12.0155 8.83334 11.7348 8.84001 11.5228 8.91401C11.3013 8.99321 11.1011 9.12241 10.9376 9.29156C10.7741 9.46071 10.6518 9.66526 10.5802 9.88934C10.5062 10.1147 10.5002 10.412 10.5002 11.2467V20.5827C10.5002 20.6627 10.5395 20.7107 10.5895 20.734C10.6123 20.7449 10.6378 20.749 10.6628 20.746C10.6899 20.7417 10.7149 20.7288 10.7342 20.7093C10.9428 20.5173 11.216 20.4107 11.4995 20.4107C11.7831 20.4107 12.0562 20.5173 12.2648 20.7093L12.5868 21.004C12.6988 21.1086 12.8463 21.1667 12.9995 21.1667C13.1527 21.1667 13.3002 21.1086 13.4122 21.004C13.7085 20.731 14.0966 20.5795 14.4995 20.5795C14.9024 20.5795 15.2906 20.731 15.5868 21.004C15.6988 21.1086 15.8463 21.1667 15.9995 21.1667C16.1527 21.1667 16.3002 21.1086 16.4122 21.004C16.7085 20.731 17.0966 20.5795 17.4995 20.5795C17.9024 20.5795 18.2906 20.731 18.5868 21.004C18.6988 21.1086 18.8463 21.1667 18.9995 21.1667C19.1527 21.1667 19.3002 21.1086 19.4122 21.004L19.7342 20.7093C19.9428 20.5173 20.216 20.4107 20.4995 20.4107C20.7831 20.4107 21.0562 20.5173 21.2648 20.7093C21.2935 20.736 21.3182 20.744 21.3368 20.746C21.3617 20.7489 21.3869 20.7448 21.4095 20.734C21.4595 20.7107 21.4995 20.662 21.4995 20.5827V11.2467C21.4995 10.412 21.4928 10.1147 21.4195 9.88868C21.3477 9.66458 21.2251 9.46007 21.0614 9.29103C20.8977 9.12199 20.6972 8.99297 20.4755 8.91401C20.2642 8.84068 19.9835 8.83401 19.1695 8.83401L12.8295 8.83334ZM18.0002 11.96C18.0493 12.0037 18.0892 12.0567 18.1178 12.1159C18.1464 12.1751 18.163 12.2394 18.1667 12.305C18.1705 12.3707 18.1612 12.4364 18.1395 12.4985C18.1178 12.5605 18.084 12.6177 18.0402 12.6667L15.6588 15.3333C15.6119 15.3859 15.5545 15.4279 15.4902 15.4567C15.4259 15.4855 15.3563 15.5004 15.2858 15.5004C15.2154 15.5004 15.1458 15.4855 15.0815 15.4567C15.0172 15.4279 14.9597 15.3859 14.9128 15.3333L13.9608 14.2667C13.8733 14.1677 13.8286 14.0381 13.8363 13.9062C13.844 13.7744 13.9036 13.6509 14.0021 13.5628C14.1006 13.4748 14.2299 13.4292 14.3618 13.4362C14.4937 13.4432 14.6175 13.5021 14.7062 13.6L15.2862 14.2493L17.2942 12.0007C17.3379 11.9516 17.3908 11.9117 17.4499 11.8831C17.509 11.8545 17.5732 11.8379 17.6388 11.8341C17.7043 11.8303 17.77 11.8395 17.832 11.8611C17.894 11.8827 17.9512 11.9163 18.0002 11.96ZM12.5002 17.3333C12.5002 17.2007 12.5529 17.0736 12.6466 16.9798C12.7404 16.886 12.8676 16.8333 13.0002 16.8333H19.0002C19.1328 16.8333 19.26 16.886 19.3537 16.9798C19.4475 17.0736 19.5002 17.2007 19.5002 17.3333C19.5002 17.466 19.4475 17.5931 19.3537 17.6869C19.26 17.7807 19.1328 17.8333 19.0002 17.8333H13.0002C12.8676 17.8333 12.7404 17.7807 12.6466 17.6869C12.5529 17.5931 12.5002 17.466 12.5002 17.3333Z" fill="#58728D"/>
</g>
<defs>
<filter id="filter0_d_87_5097" x="0" y="0" width="32" height="32" filterUnits="userSpaceOnUse" color-interpolation-filters="sRGB">
<feFlood flood-opacity="0" result="BackgroundImageFix"/>
<feColorMatrix in="SourceAlpha" type="matrix" values="0 0 0 0 0 0 0 0 0 0 0 0 0 0 0 0 0 0 127 0" result="hardAlpha"/>
<feOffset dy="1"/>
<feGaussianBlur stdDeviation="2"/>
<feComposite in2="hardAlpha" operator="out"/>
<feColorMatrix type="matrix" values="0 0 0 0 0 0 0 0 0 0 0 0 0 0 0 0 0 0 0.25 0"/>
<feBlend mode="normal" in2="BackgroundImageFix" result="effect1_dropShadow_87_5097"/>
<feBlend mode="normal" in="SourceGraphic" in2="effect1_dropShadow_87_5097" result="shape"/>
</filter>
</defs>
</svg>
