<svg width="25" height="24" viewBox="0 0 25 24" fill="none" xmlns="http://www.w3.org/2000/svg">
<path fill-rule="evenodd" clip-rule="evenodd" d="M7.59902 1.25H17.4C18.417 1.25 19.117 1.25 19.706 1.454C20.2565 1.64841 20.7548 1.96717 21.162 2.38551C21.5692 2.80384 21.8745 3.31047 22.054 3.866C22.25 4.463 22.249 5.173 22.249 6.226V20.374C22.249 21.84 20.522 22.712 19.385 21.671C19.3485 21.6361 19.3 21.6166 19.2495 21.6166C19.199 21.6166 19.1505 21.6361 19.114 21.671L18.63 22.113C17.702 22.963 16.296 22.963 15.368 22.113C15.2001 21.9562 14.9788 21.8689 14.749 21.8689C14.5192 21.8689 14.298 21.9562 14.13 22.113C13.202 22.963 11.796 22.963 10.868 22.113C10.7001 21.9562 10.4788 21.8689 10.249 21.8689C10.0192 21.8689 9.79799 21.9562 9.63002 22.113C8.70202 22.963 7.29602 22.963 6.36802 22.113L5.88502 21.671C5.8485 21.6358 5.79975 21.6161 5.74902 21.6161C5.6983 21.6161 5.64955 21.6358 5.61302 21.671C4.47602 22.711 2.74902 21.84 2.74902 20.374V6.227C2.74902 5.173 2.74902 4.463 2.94402 3.866C3.12349 3.31044 3.42872 2.80377 3.83597 2.38543C4.24321 1.96708 4.74149 1.64834 5.29202 1.454C5.88202 1.249 6.58202 1.25 7.59902 1.25ZM7.74402 2.75C6.52302 2.75 6.10202 2.76 5.78402 2.871C5.45176 2.9898 5.15135 3.18359 4.90612 3.43732C4.66089 3.69105 4.47744 3.99788 4.37002 4.334C4.25902 4.672 4.25002 5.118 4.25002 6.37V20.374C4.25002 20.494 4.30902 20.566 4.38402 20.601C4.41824 20.6173 4.45639 20.6235 4.49402 20.619C4.53462 20.6125 4.57209 20.5932 4.60102 20.564C4.91394 20.2759 5.32371 20.116 5.74902 20.116C6.17434 20.116 6.58411 20.2759 6.89702 20.564L7.38002 21.006C7.54799 21.1628 7.76922 21.2501 7.99902 21.2501C8.22882 21.2501 8.45006 21.1628 8.61802 21.006C9.06247 20.5965 9.64469 20.3692 10.249 20.3692C10.8534 20.3692 11.4356 20.5965 11.88 21.006C12.048 21.1628 12.2692 21.2501 12.499 21.2501C12.7288 21.2501 12.9501 21.1628 13.118 21.006C13.5625 20.5965 14.1447 20.3692 14.749 20.3692C15.3534 20.3692 15.9356 20.5965 16.38 21.006C16.548 21.1628 16.7692 21.2501 16.999 21.2501C17.2288 21.2501 17.4501 21.1628 17.618 21.006L18.101 20.564C18.4139 20.2759 18.8237 20.116 19.249 20.116C19.6743 20.116 20.0841 20.2759 20.397 20.564C20.44 20.604 20.477 20.616 20.505 20.619C20.5423 20.6234 20.5801 20.6171 20.614 20.601C20.689 20.566 20.749 20.493 20.749 20.374V6.37C20.749 5.118 20.739 4.672 20.629 4.333C20.5213 3.99686 20.3375 3.69009 20.0919 3.43653C19.8463 3.18297 19.5455 2.98944 19.213 2.871C18.896 2.761 18.475 2.751 17.254 2.751L7.74402 2.75ZM15.5 7.44C15.5736 7.50561 15.6336 7.58509 15.6765 7.6739C15.7194 7.76271 15.7443 7.8591 15.7499 7.95756C15.7554 8.05601 15.7415 8.1546 15.709 8.24768C15.6764 8.34076 15.6258 8.4265 15.56 8.5L11.988 12.5C11.9177 12.5788 11.8315 12.6419 11.735 12.685C11.6386 12.7282 11.5342 12.7505 11.4285 12.7505C11.3229 12.7505 11.2184 12.7282 11.122 12.685C11.0256 12.6419 10.9394 12.5788 10.869 12.5L9.44102 10.9C9.30978 10.7515 9.24262 10.5572 9.25421 10.3594C9.26581 10.1615 9.35523 9.97635 9.50292 9.84424C9.65062 9.71213 9.84459 9.64384 10.0425 9.65429C10.2404 9.66474 10.4261 9.75307 10.559 9.9L11.429 10.874L14.441 7.501C14.5065 7.42745 14.5859 7.36753 14.6746 7.32466C14.7633 7.28179 14.8595 7.25681 14.9579 7.25115C15.0562 7.24548 15.1547 7.25924 15.2477 7.29165C15.3408 7.32405 15.4265 7.37446 15.5 7.44ZM7.25002 15.5C7.25002 15.3011 7.32904 15.1103 7.46969 14.9697C7.61035 14.829 7.80111 14.75 8.00002 14.75H17C17.1989 14.75 17.3897 14.829 17.5304 14.9697C17.671 15.1103 17.75 15.3011 17.75 15.5C17.75 15.6989 17.671 15.8897 17.5304 16.0303C17.3897 16.171 17.1989 16.25 17 16.25H8.00002C7.80111 16.25 7.61035 16.171 7.46969 16.0303C7.32904 15.8897 7.25002 15.6989 7.25002 15.5Z" fill="#2B3C4E"/>
</svg>
