<svg width="18" height="16" viewBox="0 0 18 16" fill="none" xmlns="http://www.w3.org/2000/svg">
<path d="M12.125 9.25H15.875C16.2065 9.25 16.5245 9.3817 16.7589 9.61612C16.9933 9.85054 17.125 10.1685 17.125 10.5V14.25C17.125 14.5815 16.9933 14.8995 16.7589 15.1339C16.5245 15.3683 16.2065 15.5 15.875 15.5H12.125C11.7935 15.5 11.4755 15.3683 11.2411 15.1339C11.0067 14.8995 10.875 14.5815 10.875 14.25V13H10.25C9.58696 13 8.95107 12.7366 8.48223 12.2678C8.01339 11.7989 7.75 11.163 7.75 10.5V8.625H5.25V9.25C5.25 9.58152 5.1183 9.89946 4.88388 10.1339C4.64946 10.3683 4.33152 10.5 4 10.5H1.5C1.16848 10.5 0.850537 10.3683 0.616116 10.1339C0.381696 9.89946 0.25 9.58152 0.25 9.25V6.75C0.25 6.41848 0.381696 6.10054 0.616116 5.86612C0.850537 5.6317 1.16848 5.5 1.5 5.5H4C4.33152 5.5 4.64946 5.6317 4.88388 5.86612C5.1183 6.10054 5.25 6.41848 5.25 6.75V7.375H7.75V5.5C7.75 4.83696 8.01339 4.20107 8.48223 3.73223C8.95107 3.26339 9.58696 3 10.25 3H10.875V1.75C10.875 1.41848 11.0067 1.10054 11.2411 0.866117C11.4755 0.631697 11.7935 0.5 12.125 0.5H15.875C16.2065 0.5 16.5245 0.631697 16.7589 0.866117C16.9933 1.10054 17.125 1.41848 17.125 1.75V5.5C17.125 5.83152 16.9933 6.14946 16.7589 6.38388C16.5245 6.6183 16.2065 6.75 15.875 6.75H12.125C11.7935 6.75 11.4755 6.6183 11.2411 6.38388C11.0067 6.14946 10.875 5.83152 10.875 5.5V4.25H10.25C9.91848 4.25 9.60054 4.3817 9.36612 4.61612C9.1317 4.85054 9 5.16848 9 5.5V10.5C9 10.8315 9.1317 11.1495 9.36612 11.3839C9.60054 11.6183 9.91848 11.75 10.25 11.75H10.875V10.5C10.875 10.1685 11.0067 9.85054 11.2411 9.61612C11.4755 9.3817 11.7935 9.25 12.125 9.25ZM4 6.75H1.5V9.25H4V6.75ZM12.125 5.5H15.875V1.75H12.125V5.5ZM12.125 14.25H15.875V10.5H12.125V14.25Z" fill="#D2D2D2"/>
</svg>
