<svg width="24" height="24" viewBox="0 0 24 24" fill="none" xmlns="http://www.w3.org/2000/svg">
<path d="M11.5 15.5H3.5M19.5 15.5L15.5 15.5M6.5 8.5H3.5M19.5 8.5H10.5" stroke="#202020" stroke-width="1.5" stroke-linecap="round"/>
<path d="M15.5 15.5C15.5 14.3954 14.6046 13.5 13.5 13.5C12.3954 13.5 11.5 14.3954 11.5 15.5C11.5 16.6046 12.3954 17.5 13.5 17.5C14.6046 17.5 15.5 16.6046 15.5 15.5Z" stroke="#202020" stroke-width="1.5" stroke-linecap="round"/>
<path d="M10.5 8.5C10.5 7.39543 9.60457 6.5 8.5 6.5C7.39543 6.5 6.5 7.39543 6.5 8.5C6.5 9.60457 7.39543 10.5 8.5 10.5C9.60457 10.5 10.5 9.60457 10.5 8.5Z" stroke="#202020" stroke-width="1.5" stroke-linecap="round"/>
</svg>
