<svg width="24" height="24" viewBox="0 0 24 24" fill="none" xmlns="http://www.w3.org/2000/svg">
<path d="M12 17.75C10.8628 17.75 9.75105 17.4128 8.80547 16.781C7.85989 16.1491 7.1229 15.2511 6.68769 14.2004C6.25249 13.1498 6.13862 11.9936 6.36048 10.8782C6.58235 9.76284 7.12998 8.73829 7.93414 7.93414C8.73829 7.12998 9.76284 6.58235 10.8782 6.36048C11.9936 6.13862 13.1498 6.25249 14.2004 6.68769C15.2511 7.1229 16.1491 7.85989 16.781 8.80547C17.4128 9.75105 17.75 10.8628 17.75 12C17.7474 13.5242 17.1407 14.9852 16.0629 16.0629C14.9852 17.1407 13.5242 17.7474 12 17.75ZM12 7.75C11.1594 7.75 10.3377 7.99926 9.63883 8.46625C8.93992 8.93325 8.39518 9.59701 8.07351 10.3736C7.75184 11.1502 7.66768 12.0047 7.83166 12.8291C7.99565 13.6536 8.40042 14.4108 8.9948 15.0052C9.58917 15.5996 10.3464 16.0043 11.1709 16.1683C11.9953 16.3323 12.8498 16.2482 13.6264 15.9265C14.403 15.6048 15.0667 15.0601 15.5337 14.3612C16.0007 13.6623 16.25 12.8406 16.25 12C16.2474 10.8736 15.7987 9.79417 15.0023 8.99771C14.2058 8.20126 13.1264 7.75264 12 7.75ZM12 5C11.8019 4.99741 11.6126 4.91756 11.4725 4.77747C11.3324 4.63737 11.2526 4.44811 11.25 4.25V2.75C11.25 2.55109 11.329 2.36032 11.4697 2.21967C11.6103 2.07902 11.8011 2 12 2C12.1989 2 12.3897 2.07902 12.5303 2.21967C12.671 2.36032 12.75 2.55109 12.75 2.75V4.25C12.7474 4.44811 12.6676 4.63737 12.5275 4.77747C12.3874 4.91756 12.1981 4.99741 12 5ZM12 22C11.8019 21.9974 11.6126 21.9176 11.4725 21.7775C11.3324 21.6374 11.2526 21.4481 11.25 21.25V19.75C11.25 19.5511 11.329 19.3603 11.4697 19.2197C11.6103 19.079 11.8011 19 12 19C12.1989 19 12.3897 19.079 12.5303 19.2197C12.671 19.3603 12.75 19.5511 12.75 19.75V21.25C12.7474 21.4481 12.6676 21.6374 12.5275 21.7775C12.3874 21.9176 12.1981 21.9974 12 22ZM21.25 12.75H19.75C19.5511 12.75 19.3603 12.671 19.2197 12.5303C19.079 12.3897 19 12.1989 19 12C19 11.8011 19.079 11.6103 19.2197 11.4697C19.3603 11.329 19.5511 11.25 19.75 11.25H21.25C21.4489 11.25 21.6397 11.329 21.7803 11.4697C21.921 11.6103 22 11.8011 22 12C22 12.1989 21.921 12.3897 21.7803 12.5303C21.6397 12.671 21.4489 12.75 21.25 12.75ZM4.25 12.75H2.75C2.55109 12.75 2.36032 12.671 2.21967 12.5303C2.07902 12.3897 2 12.1989 2 12C2 11.8011 2.07902 11.6103 2.21967 11.4697C2.36032 11.329 2.55109 11.25 2.75 11.25H4.25C4.44891 11.25 4.63968 11.329 4.78033 11.4697C4.92098 11.6103 5 11.8011 5 12C5 12.1989 4.92098 12.3897 4.78033 12.5303C4.63968 12.671 4.44891 12.75 4.25 12.75ZM6.5 7.25C6.30706 7.23525 6.12757 7.1455 6 7L4.91 6C4.83843 5.92843 4.78166 5.84346 4.74292 5.74995C4.70419 5.65644 4.68425 5.55622 4.68425 5.455C4.68425 5.35378 4.70419 5.25356 4.74292 5.16005C4.78166 5.06654 4.83843 4.98157 4.91 4.91C4.98157 4.83843 5.06654 4.78166 5.16005 4.74292C5.25356 4.70419 5.35378 4.68425 5.455 4.68425C5.55622 4.68425 5.65644 4.70419 5.74995 4.74292C5.84346 4.78166 5.92843 4.83843 6 4.91L7 6C7.12299 6.13751 7.19098 6.31552 7.19098 6.5C7.19098 6.68448 7.12299 6.86249 7 7C6.87243 7.1455 6.69294 7.23525 6.5 7.25ZM18.56 19.31C18.4615 19.3105 18.3638 19.2912 18.2728 19.2535C18.1818 19.2157 18.0992 19.1601 18.03 19.09L17 18C16.9332 17.86 16.9114 17.7028 16.9376 17.5499C16.9638 17.3971 17.0368 17.2561 17.1464 17.1464C17.2561 17.0368 17.3971 16.9638 17.5499 16.9376C17.7028 16.9114 17.86 16.9332 18 17L19.09 18C19.2304 18.1406 19.3093 18.3312 19.3093 18.53C19.3093 18.7288 19.2304 18.9194 19.09 19.06C19.0233 19.1356 18.9419 19.1967 18.8508 19.2397C18.7597 19.2827 18.6607 19.3066 18.56 19.31ZM17.5 7.25C17.3071 7.23525 17.1276 7.1455 17 7C16.877 6.86249 16.809 6.68448 16.809 6.5C16.809 6.31552 16.877 6.13751 17 6L18 4.91C18.1445 4.76546 18.3406 4.68425 18.545 4.68425C18.7494 4.68425 18.9455 4.76546 19.09 4.91C19.2345 5.05454 19.3157 5.25059 19.3157 5.455C19.3157 5.65941 19.2345 5.85546 19.09 6L18 7C17.8724 7.1455 17.6929 7.23525 17.5 7.25ZM5.44 19.31C5.34146 19.3105 5.24382 19.2912 5.15281 19.2535C5.06179 19.2157 4.97924 19.1601 4.91 19.09C4.76955 18.9494 4.69066 18.7588 4.69066 18.56C4.69066 18.3612 4.76955 18.1706 4.91 18.03L6 17C6.13995 16.9332 6.29719 16.9114 6.45005 16.9376C6.60291 16.9638 6.74388 17.0368 6.85355 17.1464C6.96322 17.2561 7.0362 17.3971 7.06242 17.5499C7.08865 17.7028 7.06684 17.86 7 18L6 19.09C5.92727 19.1638 5.83984 19.2216 5.74337 19.2595C5.6469 19.2974 5.54354 19.3146 5.44 19.31Z" fill="#0A0908"/>
</svg>
