<svg width="20" height="20" viewBox="0 0 20 20" fill="none" xmlns="http://www.w3.org/2000/svg">
<path d="M1.66675 10.17C1.66675 8.26251 1.66675 7.30917 2.10008 6.51917C2.53175 5.72834 3.32258 5.23834 4.90341 4.25667L6.57008 3.22251C8.24091 2.18501 9.07675 1.66667 10.0001 1.66667C10.9234 1.66667 11.7584 2.18501 13.4301 3.22251L15.0967 4.25667C16.6776 5.23834 17.4684 5.72834 17.9009 6.51917C18.3334 7.30917 18.3334 8.2625 18.3334 10.1692V11.4375C18.3334 14.6875 18.3334 16.3133 17.3567 17.3233C16.3809 18.3333 14.8092 18.3333 11.6667 18.3333H8.33341C5.19091 18.3333 3.61925 18.3333 2.64341 17.3233C1.66675 16.3133 1.66675 14.6883 1.66675 11.4375V10.17Z" stroke="#D2D2D2" stroke-width="1.5"/>
<path d="M10 12.5V15" stroke="#D2D2D2" stroke-width="1.5" stroke-linecap="round"/>
</svg>
