<svg width="25" height="24" viewBox="0 0 25 24" fill="none" xmlns="http://www.w3.org/2000/svg">
<path d="M7.028 7.75C7.028 7.94891 6.94898 8.13968 6.80833 8.28033C6.66768 8.42098 6.47691 8.5 6.278 8.5C6.07909 8.5 5.88832 8.42098 5.74767 8.28033C5.60702 8.13968 5.528 7.94891 5.528 7.75C5.528 7.55109 5.60702 7.36032 5.74767 7.21967C5.88832 7.07902 6.07909 7 6.278 7C6.47691 7 6.66768 7.07902 6.80833 7.21967C6.94898 7.36032 7.028 7.55109 7.028 7.75ZM6.281 15C6.08209 15 5.89132 15.079 5.75067 15.2197C5.61002 15.3603 5.531 15.5511 5.531 15.75C5.531 15.9489 5.61002 16.1397 5.75067 16.2803C5.89132 16.421 6.08209 16.5 6.281 16.5H11.281C11.4799 16.5 11.6707 16.421 11.8113 16.2803C11.952 16.1397 12.031 15.9489 12.031 15.75C12.031 15.5511 11.952 15.3603 11.8113 15.2197C11.6707 15.079 11.4799 15 11.281 15H6.281ZM5.531 11.75C5.531 11.5511 5.61002 11.3603 5.75067 11.2197C5.89132 11.079 6.08209 11 6.281 11H11.281C11.3795 11 11.477 11.0194 11.568 11.0571C11.659 11.0948 11.7417 11.15 11.8113 11.2197C11.881 11.2893 11.9362 11.372 11.9739 11.463C12.0116 11.554 12.031 11.6515 12.031 11.75C12.031 11.8485 12.0116 11.946 11.9739 12.037C11.9362 12.128 11.881 12.2107 11.8113 12.2803C11.7417 12.35 11.659 12.4052 11.568 12.4429C11.477 12.4806 11.3795 12.5 11.281 12.5H6.281C6.08209 12.5 5.89132 12.421 5.75067 12.2803C5.61002 12.1397 5.531 11.9489 5.531 11.75ZM15.5 21C15.9569 20.9969 16.3987 20.8363 16.751 20.5454C17.1033 20.2545 17.3445 19.851 17.434 19.403L17.914 17H20.75C21.2141 17 21.6592 16.8156 21.9874 16.4874C22.3156 16.1592 22.5 15.7141 22.5 15.25V9.261C22.5 8.66325 22.2633 8.08981 21.8417 7.66611C21.42 7.2424 20.8477 7.00291 20.25 7V6.996H15V5.25C15 4.65326 14.7629 4.08097 14.341 3.65901C13.919 3.23705 13.3467 3 12.75 3H4.75C4.15326 3 3.58097 3.23705 3.15901 3.65901C2.73705 4.08097 2.5 4.65326 2.5 5.25V17.75C2.5 18.612 2.84241 19.4386 3.4519 20.0481C4.0614 20.6576 4.88805 21 5.75 21H15.486H15.5ZM4 5.25C4 5.05109 4.07902 4.86032 4.21967 4.71967C4.36032 4.57902 4.55109 4.5 4.75 4.5H12.75C12.9489 4.5 13.1397 4.57902 13.2803 4.71967C13.421 4.86032 13.5 5.05109 13.5 5.25V19.014C13.5 19.181 13.52 19.344 13.56 19.5H5.75C5.28587 19.5 4.84075 19.3156 4.51256 18.9874C4.18437 18.6592 4 18.2141 4 17.75V5.25ZM15 8.496H18.11C18.0728 8.60102 18.0434 8.70865 18.022 8.818L15.963 19.109C15.9398 19.2277 15.8732 19.3335 15.7762 19.4058C15.6792 19.478 15.5587 19.5114 15.4383 19.4996C15.3179 19.4877 15.2063 19.4314 15.1252 19.3416C15.0442 19.2518 14.9995 19.135 15 19.014V8.496ZM19.493 9.112C19.5303 8.927 19.635 8.76245 19.7868 8.6503C19.9385 8.53815 20.1266 8.4864 20.3144 8.50509C20.5022 8.52378 20.6763 8.61159 20.803 8.75146C20.9297 8.89132 20.9999 9.07328 21 9.262V15.25C21 15.3163 20.9737 15.3799 20.9268 15.4268C20.8799 15.4737 20.8163 15.5 20.75 15.5H18.215L19.493 9.112Z" fill="#2B3C4E"/>
</svg>
