<svg width="38" height="38" viewBox="0 0 38 38" fill="none" xmlns="http://www.w3.org/2000/svg">
<path d="M18.8383 26.9436L31.885 13.8969C32.0275 13.7544 32.0987 13.5818 32.0987 13.3792C32.0987 13.1765 32.0275 13.0039 31.885 12.8614L30.8621 11.8386C30.7207 11.6961 30.5481 11.6248 30.3444 11.6248C30.1417 11.6248 29.9691 11.6961 29.8266 11.8386L16.78 24.8852L18.8383 26.9436ZM9.29871 29.2315C7.22876 29.0996 5.65863 28.6061 4.58829 27.7511C3.51901 26.8961 2.98438 25.7176 2.98438 24.2155C2.98438 22.724 3.62404 21.5149 4.90337 20.5881C6.18376 19.6613 7.96554 19.0924 10.2487 18.8812C11.5217 18.762 12.4765 18.5107 13.113 18.1276C13.7495 17.7455 14.0677 17.2182 14.0677 16.5458C14.0677 15.6771 13.6782 15.0052 12.8992 14.5302C12.1202 14.0552 10.8541 13.718 9.10079 13.5185L9.25596 11.9668C11.4061 12.2181 13.0095 12.7194 14.0661 13.471C15.1217 14.2236 15.6495 15.2486 15.6495 16.5458C15.6495 17.6605 15.1924 18.5577 14.2783 19.2375C13.3642 19.9173 12.0595 20.3263 10.3643 20.4646C8.43263 20.6366 6.98335 21.033 6.01646 21.6537C5.05063 22.2733 4.56771 23.1272 4.56771 24.2155C4.56771 25.2605 4.95193 26.059 5.72038 26.6111C6.49093 27.1621 7.69585 27.5078 9.33512 27.6482L9.29871 29.2315ZM18.8304 29.203L14.5205 24.8963L28.9716 10.4737C29.378 10.0684 29.8425 9.8705 30.365 9.88C30.8875 9.89055 31.3519 10.0885 31.7583 10.4737L33.2498 11.9668C33.6562 12.3722 33.8594 12.8419 33.8594 13.376C33.8594 13.908 33.6562 14.3772 33.2498 14.7836L18.8304 29.203ZM14.5443 30.0833C14.2783 30.1488 14.0445 30.0807 13.8429 29.8791C13.6423 29.6785 13.5742 29.4452 13.6386 29.1792L14.519 24.8947L18.8272 29.203L14.5443 30.0833Z" fill="#202020"/>
</svg>
