<svg width="32" height="22" viewBox="0 0 32 22" fill="none" xmlns="http://www.w3.org/2000/svg">
<path d="M16.8383 17.9435L29.885 4.89688C30.0275 4.75438 30.0987 4.5818 30.0987 4.37913C30.0987 4.17646 30.0275 4.00388 29.885 3.86138L28.8621 2.83855C28.7207 2.69605 28.5481 2.6248 28.3444 2.6248C28.1417 2.6248 27.9691 2.69605 27.8266 2.83855L14.78 15.8852L16.8383 17.9435ZM7.29871 20.2315C5.22876 20.0995 3.65863 19.606 2.58829 18.751C1.51901 17.896 0.984375 16.7175 0.984375 15.2155C0.984375 13.724 1.62404 12.5148 2.90337 11.588C4.18376 10.6613 5.96554 10.0923 8.24871 9.88122C9.52171 9.76194 10.4765 9.51072 11.113 9.12755C11.7495 8.74544 12.0677 8.21819 12.0677 7.5458C12.0677 6.67708 11.6782 6.00522 10.8992 5.53022C10.1202 5.05521 8.85407 4.71797 7.10079 4.51847L7.25596 2.9668C9.40613 3.21802 11.0095 3.71941 12.0661 4.47097C13.1217 5.22358 13.6495 6.24852 13.6495 7.5458C13.6495 8.66046 13.1924 9.55769 12.2783 10.2375C11.3642 10.9172 10.0595 11.3263 8.36429 11.4645C6.43263 11.6366 4.98335 12.033 4.01646 12.6536C3.05063 13.2732 2.56771 14.1272 2.56771 15.2155C2.56771 16.2605 2.95193 17.059 3.72038 17.611C4.49093 18.162 5.69585 18.5077 7.33512 18.6481L7.29871 20.2315ZM16.8304 20.203L12.5205 15.8963L26.9716 1.47372C27.378 1.06838 27.8425 0.870465 28.365 0.879965C28.8875 0.890521 29.3519 1.08844 29.7583 1.47372L31.2498 2.9668C31.6562 3.37213 31.8594 3.84185 31.8594 4.37596C31.8594 4.90796 31.6562 5.37716 31.2498 5.78355L16.8304 20.203ZM12.5443 21.0833C12.2783 21.1487 12.0445 21.0807 11.8429 20.879C11.6423 20.6785 11.5742 20.4452 11.6386 20.1792L12.519 15.8947L16.8272 20.203L12.5443 21.0833Z" fill="white"/>
</svg>
