<svg width="25" height="24" viewBox="0 0 25 24" fill="none" xmlns="http://www.w3.org/2000/svg">
<path d="M21.5 17.5C21.5 18.4283 21.1313 19.3185 20.4749 19.9749C19.8185 20.6313 18.9283 21 18 21C17.0717 21 16.1815 20.6313 15.5251 19.9749C14.8687 19.3185 14.5 18.4283 14.5 17.5C14.5 16.5717 14.8687 15.6815 15.5251 15.0251C16.1815 14.3687 17.0717 14 18 14C18.9283 14 19.8185 14.3687 20.4749 15.0251C21.1313 15.6815 21.5 16.5717 21.5 17.5Z" stroke="#2B3C4E" stroke-width="1.5"/>
<path d="M2.5 11H22.5M4.5 11L5.114 8.545C5.659 6.362 5.932 5.271 6.746 4.635C7.56 4 8.685 4 10.935 4H14.065C16.315 4 17.44 4 18.254 4.635C19.068 5.271 19.34 6.362 19.886 8.545L20.5 11" stroke="#2B3C4E" stroke-width="1.5" stroke-linecap="round"/>
<path d="M10.5 17.5C10.5 17.9596 10.4095 18.4148 10.2336 18.8394C10.0577 19.264 9.79988 19.6499 9.47487 19.9749C9.14987 20.2999 8.76403 20.5577 8.33939 20.7336C7.91475 20.9095 7.45963 21 7 21C6.54037 21 6.08525 20.9095 5.66061 20.7336C5.23597 20.5577 4.85013 20.2999 4.52513 19.9749C4.20012 19.6499 3.94231 19.264 3.76642 18.8394C3.59053 18.4148 3.5 17.9596 3.5 17.5C3.5 16.5717 3.86875 15.6815 4.52513 15.0251C5.1815 14.3687 6.07174 14 7 14C7.92826 14 8.8185 14.3687 9.47487 15.0251C10.1313 15.6815 10.5 16.5717 10.5 17.5Z" stroke="#2B3C4E" stroke-width="1.5"/>
<path d="M10.5 17.5L11.158 17.17C11.5747 16.9616 12.0341 16.8531 12.5 16.8531C12.9659 16.8531 13.4253 16.9616 13.842 17.17L14.5 17.5" stroke="#2B3C4E" stroke-width="1.5" stroke-linecap="round"/>
</svg>
