<svg width="18" height="14" viewBox="0 0 18 14" fill="none" xmlns="http://www.w3.org/2000/svg">
<path d="M5.69219 8.43281C5.80947 8.55008 5.87535 8.70914 5.87535 8.875C5.87535 9.04085 5.80947 9.19991 5.69219 9.31718C5.57492 9.43446 5.41586 9.50034 5.25 9.50034C5.08415 9.50034 4.92509 9.43446 4.80782 9.31718L1.05782 5.56718C0.999706 5.50914 0.953606 5.44021 0.922153 5.36433C0.890701 5.28846 0.874512 5.20713 0.874512 5.125C0.874512 5.04286 0.890701 4.96153 0.922153 4.88566C0.953606 4.80978 0.999706 4.74085 1.05782 4.68281L4.80782 0.932809C4.92509 0.815534 5.08415 0.749649 5.25 0.749649C5.41586 0.749649 5.57492 0.815534 5.69219 0.932809C5.80947 1.05008 5.87535 1.20914 5.87535 1.375C5.87535 1.54085 5.80947 1.69991 5.69219 1.81718L2.3836 5.125L5.69219 8.43281ZM9 4.5H6.7586L9.44219 1.81718C9.55947 1.69991 9.62535 1.54085 9.62535 1.375C9.62535 1.20914 9.55947 1.05008 9.44219 0.932809C9.32491 0.815534 9.16586 0.749649 9 0.749649C8.83415 0.749649 8.67509 0.815534 8.55782 0.932809L4.80782 4.68281C4.74971 4.74085 4.70361 4.80978 4.67215 4.88566C4.6407 4.96153 4.62451 5.04286 4.62451 5.125C4.62451 5.20713 4.6407 5.28846 4.67215 5.36433C4.70361 5.44021 4.74971 5.50914 4.80782 5.56718L8.55782 9.31718C8.61588 9.37525 8.68482 9.42132 8.76069 9.45274C8.83656 9.48417 8.91788 9.50034 9 9.50034C9.08212 9.50034 9.16344 9.48417 9.23931 9.45274C9.31518 9.42132 9.38412 9.37525 9.44219 9.31718C9.50026 9.25912 9.54632 9.19018 9.57775 9.11431C9.60917 9.03844 9.62535 8.95712 9.62535 8.875C9.62535 8.79287 9.60917 8.71156 9.57775 8.63569C9.54632 8.55982 9.50026 8.49088 9.44219 8.43281L6.7586 5.75H9C10.8227 5.75206 12.5702 6.47706 13.8591 7.76592C15.1479 9.05479 15.8729 10.8023 15.875 12.625C15.875 12.7908 15.9408 12.9497 16.0581 13.0669C16.1753 13.1841 16.3342 13.25 16.5 13.25C16.6658 13.25 16.8247 13.1841 16.9419 13.0669C17.0592 12.9497 17.125 12.7908 17.125 12.625C17.1227 10.4708 16.266 8.40551 14.7427 6.88227C13.2195 5.35903 11.1542 4.50227 9 4.5Z" fill="#D2D2D2"/>
</svg>
