<svg width="20" height="20" viewBox="0 0 20 20" fill="none" xmlns="http://www.w3.org/2000/svg">
<path d="M6.69219 11.4328C6.80947 11.5501 6.87535 11.7091 6.87535 11.875C6.87535 12.0408 6.80947 12.1999 6.69219 12.3172C6.57492 12.4344 6.41586 12.5003 6.25 12.5003C6.08415 12.5003 5.92509 12.4344 5.80782 12.3172L2.05782 8.56717C1.99971 8.50912 1.95361 8.44019 1.92215 8.36432C1.8907 8.28844 1.87451 8.20712 1.87451 8.12498C1.87451 8.04285 1.8907 7.96152 1.92215 7.88564C1.95361 7.80977 1.99971 7.74084 2.05782 7.68279L5.80782 3.93279C5.92509 3.81552 6.08415 3.74963 6.25 3.74963C6.41586 3.74963 6.57492 3.81552 6.69219 3.93279C6.80947 4.05007 6.87535 4.20913 6.87535 4.37498C6.87535 4.54083 6.80947 4.69989 6.69219 4.81717L3.3836 8.12498L6.69219 11.4328ZM10 7.49998H7.7586L10.4422 4.81717C10.5595 4.69989 10.6254 4.54083 10.6254 4.37498C10.6254 4.20913 10.5595 4.05007 10.4422 3.93279C10.3249 3.81552 10.1659 3.74963 10 3.74963C9.83415 3.74963 9.67509 3.81552 9.55782 3.93279L5.80782 7.68279C5.74971 7.74084 5.70361 7.80977 5.67215 7.88564C5.6407 7.96152 5.62451 8.04285 5.62451 8.12498C5.62451 8.20712 5.6407 8.28844 5.67215 8.36432C5.70361 8.44019 5.74971 8.50912 5.80782 8.56717L9.55782 12.3172C9.61588 12.3752 9.68482 12.4213 9.76069 12.4527C9.83656 12.4842 9.91788 12.5003 10 12.5003C10.0821 12.5003 10.1634 12.4842 10.2393 12.4527C10.3152 12.4213 10.3841 12.3752 10.4422 12.3172C10.5003 12.2591 10.5463 12.1902 10.5777 12.1143C10.6092 12.0384 10.6254 11.9571 10.6254 11.875C10.6254 11.7929 10.6092 11.7115 10.5777 11.6357C10.5463 11.5598 10.5003 11.4909 10.4422 11.4328L7.7586 8.74998H10C11.8227 8.75205 13.5702 9.47704 14.8591 10.7659C16.1479 12.0548 16.8729 13.8023 16.875 15.625C16.875 15.7907 16.9408 15.9497 17.0581 16.0669C17.1753 16.1841 17.3342 16.25 17.5 16.25C17.6658 16.25 17.8247 16.1841 17.9419 16.0669C18.0592 15.9497 18.125 15.7907 18.125 15.625C18.1227 13.4708 17.266 11.4055 15.7427 9.88225C14.2195 8.35901 12.1542 7.50226 10 7.49998Z" fill="#243241"/>
</svg>
